<svg width="66" height="43" viewBox="0 0 66 43" fill="none" xmlns="http://www.w3.org/2000/svg">
<path d="M14.8214 42.2795C12.3512 42.2795 10.2515 41.5088 8.52232 39.9673C7.60627 39.1507 6.93286 38.2414 6.5021 37.2394C5.85552 35.7354 4.60142 34.3521 2.96429 34.3521C1.32716 34.3521 0 33.0249 0 31.3878V5.28493C0 3.83158 0.580506 2.58742 1.74152 1.55245C2.90253 0.517483 4.29821 0 5.92857 0H43.4286C45.6377 0 47.4286 1.79086 47.4286 4V6.56987C47.4286 8.77901 49.2194 10.5699 51.4286 10.5699H54.4594C55.6399 10.5699 56.7602 11.0914 57.5202 11.9947L64.2751 20.0234C64.8817 20.7444 65.2143 21.6564 65.2143 22.5986V31.3878C65.2143 33.0249 63.8871 34.3521 62.25 34.3521C60.6129 34.3521 59.3588 35.7354 58.7122 37.2394C58.2814 38.2414 57.608 39.1507 56.692 39.9673C54.9628 41.5088 52.8631 42.2795 50.3929 42.2795C47.9226 42.2795 45.8229 41.5088 44.0938 39.9673C43.4657 39.4074 42.9517 38.804 42.5518 38.157C41.3902 36.2778 39.7091 34.3521 37.5 34.3521H27.7143C25.5051 34.3521 23.8241 36.2778 22.6625 38.157C22.2626 38.804 21.7486 39.4074 21.1205 39.9673C19.3914 41.5088 17.2917 42.2795 14.8214 42.2795ZM14.8214 36.9945C15.6613 36.9945 16.3653 36.7413 16.9335 36.2348C17.5016 35.7284 17.7857 35.1008 17.7857 34.3521C17.7857 33.6034 17.5016 32.9758 16.9335 32.4693C16.3653 31.9628 15.6613 31.7096 14.8214 31.7096C13.9815 31.7096 13.2775 31.9628 12.7094 32.4693C12.1412 32.9758 11.8571 33.6034 11.8571 34.3521C11.8571 35.1008 12.1412 35.7284 12.7094 36.2348C13.2775 36.7413 13.9815 36.9945 14.8214 36.9945ZM5.92857 27.3701C5.92857 28.3074 6.68836 29.0671 7.6256 29.0671C8.05872 29.0671 8.47139 28.8965 8.8055 28.6209C9.52036 28.0312 10.3153 27.5413 11.1902 27.1514C12.2771 26.6669 13.4875 26.4247 14.8214 26.4247C16.1554 26.4247 17.3658 26.6669 18.4527 27.1514C19.0398 27.413 19.5909 27.7197 20.1059 28.0713C20.9491 28.647 21.9116 29.0671 22.9325 29.0671H37.5C39.7091 29.0671 41.5 27.2763 41.5 25.0671V9.28493C41.5 7.07579 39.7091 5.28493 37.5 5.28493H9.92858C7.71944 5.28493 5.92857 7.0758 5.92857 9.28493V27.3701ZM50.3929 36.9945C51.2327 36.9945 51.9368 36.7413 52.5049 36.2348C53.0731 35.7284 53.3571 35.1008 53.3571 34.3521C53.3571 33.6034 53.0731 32.9758 52.5049 32.4693C51.9368 31.9628 51.2327 31.7096 50.3929 31.7096C49.553 31.7096 48.849 31.9628 48.2808 32.4693C47.7127 32.9758 47.4286 33.6034 47.4286 34.3521C47.4286 35.1008 47.7127 35.7284 48.2808 36.2348C48.849 36.7413 49.553 36.9945 50.3929 36.9945ZM47.4286 19.8185C47.4286 22.0076 49.2412 23.7822 51.4303 23.7822C54.7996 23.7822 56.7142 19.8449 54.545 17.2667C53.7919 16.3716 52.6818 15.8548 51.512 15.8548H51.3923C49.2032 15.8548 47.4286 17.6294 47.4286 19.8185Z" fill="#5F6368"/>
</svg>
