<svg width="60" height="43" viewBox="0 0 60 43" fill="none" xmlns="http://www.w3.org/2000/svg">
<path d="M59.2857 5.28493V36.9945C59.2857 38.4479 58.7052 39.6921 57.5442 40.727C56.3832 41.762 54.9875 42.2795 53.3571 42.2795H5.92857C4.29821 42.2795 2.90253 41.762 1.74152 40.727C0.580506 39.6921 0 38.4479 0 36.9945V5.28493C0 3.83158 0.580506 2.58742 1.74152 1.55245C2.90253 0.517483 4.29821 0 5.92857 0H53.3571C54.9875 0 56.3832 0.517483 57.5442 1.55245C58.7052 2.58742 59.2857 3.83158 59.2857 5.28493ZM5.92857 6.56987C5.92857 8.77901 7.71943 10.5699 9.92857 10.5699H50.7147C52.1741 10.5699 53.3571 9.3868 53.3571 7.9274C53.3571 6.46801 52.1741 5.28493 50.7147 5.28493H5.92857V6.56987ZM9.92857 21.1397C7.71943 21.1397 5.92857 22.9306 5.92857 25.1397V36.9945H49.3571C51.5663 36.9945 53.3571 35.2037 53.3571 32.9945V25.1397C53.3571 22.9306 51.5663 21.1397 49.3571 21.1397H9.92857Z" fill="#5F6368"/>
</svg>
