<svg width="35" height="29" viewBox="0 0 35 29" fill="none" xmlns="http://www.w3.org/2000/svg">
<path d="M17.4387 28.5259L14.9101 26.505C11.9746 24.1473 9.54768 22.1134 7.62943 20.4034C5.71117 18.6934 4.18529 17.1583 3.05177 15.7981C1.91826 14.4378 1.12625 13.1877 0.675749 12.0477C0.22525 10.9077 0 9.74182 0 8.55C0 6.11455 0.915531 4.08068 2.74659 2.44841C4.57766 0.816136 6.85922 0 9.59128 0C11.1026 0 12.5413 0.285 13.9074 0.855C15.2734 1.425 16.4505 2.22818 17.4387 3.26455C18.4269 2.22818 19.604 1.425 20.97 0.855C22.3361 0.285 23.7747 0 25.2861 0C28.0182 0 30.2997 0.816136 32.1308 2.44841C33.9619 4.08068 34.8774 6.11455 34.8774 8.55C34.8774 9.74182 34.6521 10.9077 34.2016 12.0477C33.7511 13.1877 32.9591 14.4378 31.8256 15.7981C30.6921 17.1583 29.1662 18.6934 27.248 20.4034C25.3297 22.1134 22.9028 24.1473 19.9673 26.505L17.4387 28.5259ZM17.4387 24.3286C20.2289 22.1005 22.525 20.1897 24.327 18.5963C26.129 17.0028 27.5531 15.6167 28.5995 14.4378C29.6458 13.259 30.3724 12.2097 30.7793 11.2899C31.1862 10.3701 31.3896 9.45682 31.3896 8.55C31.3896 6.99546 30.8084 5.7 29.6458 4.66364C28.4832 3.62727 27.03 3.10909 25.2861 3.10909C23.9201 3.10909 22.6558 3.45239 21.4932 4.13898C20.3306 4.82557 19.5313 5.7 19.0954 6.76227H15.782C15.346 5.7 14.5468 4.82557 13.3842 4.13898C12.2216 3.45239 10.9573 3.10909 9.59128 3.10909C7.84741 3.10909 6.39419 3.62727 5.23161 4.66364C4.06903 5.7 3.48774 6.99546 3.48774 8.55C3.48774 9.45682 3.69119 10.3701 4.09809 11.2899C4.505 12.2097 5.23161 13.259 6.27793 14.4378C7.32425 15.6167 8.74841 17.0028 10.5504 18.5963C12.3524 20.1897 14.6485 22.1005 17.4387 24.3286Z" fill="black"/>
</svg>
