<svg width="42" height="53" viewBox="0 0 42 53" fill="none" xmlns="http://www.w3.org/2000/svg">
<path d="M13.2334 46.8096C14.8047 47.4207 16.0233 45.7656 15.0437 44.3935C14.3521 43.4246 13.5369 42.5217 12.5982 41.6849C11.6595 40.8481 10.6467 40.1105 9.55982 39.4719C9.51753 39.447 9.47508 39.4223 9.43249 39.3979C7.87539 38.5028 6.1887 39.9054 7.04018 41.4867C7.63304 42.5878 8.42351 43.5787 9.41161 44.4595C10.3997 45.3403 11.5113 46.056 12.7464 46.6065C12.9071 46.6781 13.0694 46.7458 13.2334 46.8096ZM26.4562 44.3604C25.499 45.7319 26.7252 47.3561 28.2884 46.7614C28.445 46.7018 28.6 46.6392 28.7536 46.5735C29.9887 46.045 31.1003 45.3403 32.0884 44.4595C33.0765 43.5787 33.867 42.5878 34.4598 41.4867C35.2994 39.9275 33.6646 38.5209 32.1087 39.3667C32.0647 39.3905 32.0209 39.4146 31.9772 39.4388C30.8656 40.0554 29.8405 40.7821 28.9018 41.6189C27.9631 42.4556 27.1479 43.3695 26.4562 44.3604ZM20.75 23.7822C24.0107 23.7822 26.8021 22.7472 29.1241 20.6773C31.4461 18.6074 32.6071 16.1191 32.6071 13.2123C32.6071 11.9066 31.1159 11.1618 30.072 11.9461L29.031 12.7283C28.1155 13.4162 26.8282 13.3004 26.05 12.4603L23.6846 9.90654C22.1015 8.19739 19.3985 8.19739 17.8154 9.90654L15.45 12.4603C14.6718 13.3004 13.3845 13.4162 12.469 12.7283L11.428 11.9461C10.3841 11.1618 8.89286 11.9066 8.89286 13.2123C8.89286 16.1191 10.0539 18.6074 12.3759 20.6773C14.6979 22.7472 17.4893 23.7822 20.75 23.7822ZM17.7857 52.8494C12.8452 52.8494 8.64583 51.3079 5.1875 48.225C1.72917 45.1422 0 41.3987 0 36.9945V35.6597C0 33.4701 1.77072 31.6499 3.93839 31.9587C6.01107 32.254 8.00839 32.8095 9.93036 33.6254C10.571 33.8974 11.1908 34.1889 11.7896 34.5C14.1908 35.7478 17.7857 34.1644 17.7857 31.4583C17.7857 29.9717 16.685 28.737 15.2522 28.341C12.1125 27.4733 9.4246 25.8767 7.18839 23.551C4.37232 20.6223 2.96429 17.176 2.96429 13.2123V4.22795C2.96429 3.08288 3.53244 2.27913 4.66875 1.8167C5.80506 1.35426 6.86726 1.4974 7.85536 2.2461L10.438 4.2372C12.0799 5.50308 14.4169 5.30459 15.8218 3.77993L18.4527 0.924864C19.0455 0.308288 19.8113 0 20.75 0C21.6887 0 22.4545 0.308288 23.0473 0.924864L25.6782 3.77993C27.0831 5.30459 29.4201 5.50308 31.0621 4.2372L33.6446 2.2461C34.6327 1.4974 35.6949 1.35426 36.8312 1.8167C37.9676 2.27913 38.5357 3.08288 38.5357 4.22795V13.2123C38.5357 17.176 37.1277 20.6223 34.3116 23.551C32.0754 25.8767 29.3875 27.4733 26.2478 28.341C24.815 28.737 23.7143 29.9717 23.7143 31.4583C23.7143 34.1644 27.3091 35.7478 29.7104 34.5C30.3092 34.1889 30.929 33.8974 31.5696 33.6254C33.4916 32.8095 35.4889 32.254 37.5616 31.9587C39.7293 31.6499 41.5 33.4702 41.5 35.6597V36.9945C41.5 41.3987 39.7708 45.1422 36.3125 48.225C32.8542 51.3079 28.6548 52.8494 23.7143 52.8494H17.7857Z" fill="#5F6368"/>
</svg>
