<svg width="43" height="21" viewBox="0 0 43 21" fill="none" xmlns="http://www.w3.org/2000/svg">
<path d="M9.85417 20.3542C7.10694 20.3542 4.77778 19.3986 2.86667 17.4875C0.955555 15.5764 0 13.2472 0 10.5C0 7.75279 0.955555 5.42362 2.86667 3.51251C4.77778 1.6014 7.10694 0.645844 9.85417 0.645844C10.959 0.645844 12.0191 0.839941 13.0344 1.22814C14.0497 1.61633 14.9604 2.16876 15.7667 2.88543L18.8125 5.66251L16.125 8.08126L13.3479 5.57293C12.8701 5.15487 12.3326 4.8264 11.7354 4.58751C11.1382 4.34862 10.5111 4.22918 9.85417 4.22918C8.12222 4.22918 6.6441 4.84133 5.41979 6.06564C4.19549 7.28994 3.58333 8.76807 3.58333 10.5C3.58333 12.232 4.19549 13.7101 5.41979 14.9344C6.6441 16.1587 8.12222 16.7708 9.85417 16.7708C10.5111 16.7708 11.1382 16.6514 11.7354 16.4125C12.3326 16.1736 12.8701 15.8451 13.3479 15.4271L27.2333 2.88543C28.0396 2.16876 28.9503 1.61633 29.9656 1.22814C30.9809 0.839941 32.041 0.645844 33.1458 0.645844C35.8931 0.645844 38.2222 1.6014 40.1333 3.51251C42.0444 5.42362 43 7.75279 43 10.5C43 13.2472 42.0444 15.5764 40.1333 17.4875C38.2222 19.3986 35.8931 20.3542 33.1458 20.3542C32.041 20.3542 30.9809 20.1601 29.9656 19.7719C28.9503 19.3837 28.0396 18.8313 27.2333 18.1146L24.1875 15.3375L26.875 12.9188L29.6521 15.4271C30.1299 15.8451 30.6674 16.1736 31.2646 16.4125C31.8618 16.6514 32.4889 16.7708 33.1458 16.7708C34.8778 16.7708 36.3559 16.1587 37.5802 14.9344C38.8045 13.7101 39.4167 12.232 39.4167 10.5C39.4167 8.76807 38.8045 7.28994 37.5802 6.06564C36.3559 4.84133 34.8778 4.22918 33.1458 4.22918C32.4889 4.22918 31.8618 4.34862 31.2646 4.58751C30.6674 4.8264 30.1299 5.15487 29.6521 5.57293L15.7667 18.1146C14.9604 18.8313 14.0497 19.3837 13.0344 19.7719C12.0191 20.1601 10.959 20.3542 9.85417 20.3542Z" fill="black"/>
</svg>
