<svg width="55" height="50" viewBox="0 0 55 50" fill="none" xmlns="http://www.w3.org/2000/svg">
<path d="M51.7917 49.3584C45.4259 49.3584 39.1366 48.1214 32.9236 45.6472C26.7106 43.1731 21.0579 39.6662 15.9653 35.1264C10.8727 30.5867 6.93866 25.5476 4.16319 20.0092C1.38773 14.4707 0 8.86419 0 3.18955C0 2.3724 0.305556 1.69144 0.916667 1.14668C1.52778 0.601912 2.29167 0.329529 3.20833 0.329529H15.5833C16.2963 0.329529 16.9329 0.545165 17.4931 0.976438C18.0532 1.40771 18.3843 1.91843 18.4861 2.50859L20.4722 12.042C20.5741 12.7683 20.5486 13.3812 20.3958 13.8806C20.2431 14.3799 19.963 14.8112 19.5556 15.1744L14.6058 19.6323C13.1785 20.9177 12.8475 23.0527 14.0102 24.5815C14.56 25.3046 15.1481 26.0163 15.7743 26.7166C17.1748 28.2828 18.7153 29.7923 20.3958 31.245C21.9745 32.6523 23.6296 33.9575 25.3611 35.1605C26.3579 35.8531 27.3885 36.5118 28.4528 37.1366C29.8812 37.9753 31.6773 37.7355 32.9137 36.6334L38.0417 32.0621C38.5 31.6536 39.0984 31.3471 39.8368 31.1428C40.5752 30.9386 41.3009 30.8818 42.0139 30.9726L52.5556 32.8793C53.2685 33.0609 53.8542 33.39 54.3125 33.8667C54.7708 34.3433 55 34.8768 55 35.4669V46.4984C55 47.3156 54.6944 47.9965 54.0833 48.5413C53.4722 49.0861 52.7083 49.3584 51.7917 49.3584ZM7.53155 12.2961C8.2004 14.5621 10.9913 15.114 12.7549 13.5419C13.7022 12.6975 14.1296 11.4134 13.8773 10.1697L13.5489 8.55109C13.2214 6.93715 11.8025 5.77719 10.1557 5.77719C8.05699 5.77719 6.43213 7.63305 6.87872 9.68369C6.99597 10.2221 7.12205 10.7585 7.25694 11.2929C7.34154 11.6281 7.43307 11.9625 7.53155 12.2961ZM40.5329 37.5361C38.7297 39.1436 39.2768 42.065 41.6217 42.6458C41.9678 42.7315 42.3149 42.8127 42.6632 42.8894C43.6221 43.1004 44.5837 43.2771 45.5481 43.4195C47.3481 43.6852 48.8889 42.2336 48.8889 40.4141C48.8889 38.8906 47.7981 37.5856 46.2987 37.3155L43.258 36.7676C42.2798 36.5913 41.2749 36.8747 40.5329 37.5361Z" fill="#5F6368"/>
</svg>
